
<svg xmlns="http://www.w3.org/2000/svg" width="24" height="29" viewBox="0 0 24 29" fill="none">
<path d="M14.9367 24.0415C14.9367 24.8654 14.4303 25.9459 13.7847 26.3646L12 27.5936C10.3418 28.6876 8.03796 27.4586 8.03796 25.2706V18.0448C8.03796 17.0858 7.53163 15.8568 7.01264 15.1815L2.15186 9.72497C1.50629 9.03616 1 7.82062 1 6.99674V3.8633C1 2.22905 2.15192 1 3.55698 1H20.4429C21.848 1 23 2.22905 23 3.72823V6.7266C23 7.8206 22.3544 9.18474 21.7215 9.86005" stroke="white" stroke-width="1.73" stroke-miterlimit="10" stroke-linecap="round" stroke-linejoin="round"/>
<path d="M17.1518 20.5974C19.3889 20.5974 21.2024 18.6624 21.2024 16.2755C21.2024 13.8885 19.3889 11.9535 17.1518 11.9535C14.9147 11.9535 13.1012 13.8885 13.1012 16.2755C13.1012 18.6624 14.9147 20.5974 17.1518 20.5974Z" stroke="white" stroke-width="1.73" stroke-linecap="round" stroke-linejoin="round"/>
<path d="M21.9619 21.4078L20.696 20.0572" stroke="white" stroke-width="1.73" stroke-linecap="round" stroke-linejoin="round"/>
</svg>