<svg xmlns="http://www.w3.org/2000/svg" width="18" height="18" viewBox="0 0 18 18" fill="none">
  <path d="M8.29274 16.7862C3.72162 16.7862 0 13.0195 0 8.39308C0 3.76665 3.72162 0 8.29274 0C12.8639 0 16.5855 3.76665 16.5855 8.39308C16.5855 13.0195 12.8639 16.7862 8.29274 16.7862ZM8.29274 1.22826C4.38504 1.22826 1.21357 4.44629 1.21357 8.39308C1.21357 12.3399 4.38504 15.5579 8.29274 15.5579C12.2004 15.5579 15.3719 12.3399 15.3719 8.39308C15.3719 4.44629 12.2004 1.22826 8.29274 1.22826Z" fill="#292D32"/>
  <path d="M16.788 17.6049C16.6343 17.6049 16.4806 17.5476 16.3592 17.4248L14.7412 15.7871C14.5065 15.5496 14.5065 15.1566 14.7412 14.9191C14.9758 14.6817 15.3641 14.6817 15.5987 14.9191L17.2168 16.5568C17.4515 16.7943 17.4515 17.1873 17.2168 17.4248C17.0955 17.5476 16.9418 17.6049 16.788 17.6049Z" fill="#292D32"/>
</svg>